<?xml version="1.0" encoding="UTF-8" standalone="no" ?>
<!DOCTYPE svg PUBLIC "-//W3C//DTD SVG 1.1//EN" "http://www.w3.org/Graphics/SVG/1.1/DTD/svg11.dtd">
<svg xmlns="http://www.w3.org/2000/svg" xmlns:xlink="http://www.w3.org/1999/xlink" version="1.1" width="150" height="150" viewBox="0 0 150 150" xml:space="preserve">
<desc>Created with Fabric.js 5.2.4</desc>
<defs>
</defs>
<rect x="0" y="0" width="100%" height="100%" fill="transparent"></rect>
<g transform="matrix(0 0 0 0 0 0)" id="7a7cd9ab-ec14-4c48-bc0d-cc5e6e5f8c68"  >
</g>
<g transform="matrix(1 0 0 1 75 75)" id="07ee9545-694c-4f59-b389-e2b860b5e389"  >
<rect style="stroke: none; stroke-width: 1; stroke-dasharray: none; stroke-linecap: butt; stroke-dashoffset: 0; stroke-linejoin: miter; stroke-miterlimit: 4; fill: rgb(255,255,255); fill-rule: nonzero; opacity: 1; visibility: hidden;" vector-effect="non-scaling-stroke"  x="-75" y="-75" rx="0" ry="0" width="150" height="150" />
</g>
<g transform="matrix(0 0 0 0 0 0)"  >
<g style=""   >
</g>
</g>
<g transform="matrix(1 0 0 1 75 75)"  >
<g style="" vector-effect="non-scaling-stroke"   >
		<g transform="matrix(1 0 0 1 -0.23 -14.97)"  >
<path style="stroke: none; stroke-width: 1; stroke-dasharray: none; stroke-linecap: butt; stroke-dashoffset: 0; stroke-linejoin: miter; stroke-miterlimit: 4; fill: rgb(242,66,53); fill-rule: nonzero; opacity: 1;" vector-effect="non-scaling-stroke"  transform=" translate(-98.04, -60.29)" d="M 100.152344 3.414062 C 98.378906 3.902344 97.46875 4.886719 97.667969 6.101562 C 97.894531 7.46875 99.015625 9.59375 101.878906 13.96875 C 104.199219 17.519531 104.457031 17.992188 105.167969 20.101562 C 105.820312 22 105.882812 22.4375 105.59375 23.136719 C 105.410156 23.546875 105.398438 23.503906 105.140625 22.164062 C 104.625 19.386719 103.167969 16.808594 100.726562 14.363281 C 97.257812 10.871094 93.226562 8.746094 88.9375 8.136719 C 88.042969 8 87.464844 8.242188 85.390625 9.59375 C 83.664062 10.734375 82.648438 11.691406 81.8125 12.964844 C 80.890625 14.40625 80.601562 15.515625 80.523438 18.066406 C 80.433594 20.753906 80.644531 22.136719 81.632812 25.308594 C 82.675781 28.648438 82.90625 29.558594 82.980469 30.894531 L 83.070312 32.109375 L 82.632812 30.972656 C 82.390625 30.347656 81.617188 28.601562 80.902344 27.101562 C 79.449219 24.019531 79.101562 23.152344 78.675781 21.453125 C 78.238281 19.675781 78.160156 18.660156 78.371094 17.382812 C 78.464844 16.746094 78.507812 16.199219 78.464844 16.152344 C 78.28125 15.972656 76.796875 16.941406 76.160156 17.640625 C 75.796875 18.035156 74.949219 19.28125 74.265625 20.375 C 72.386719 23.394531 71.597656 24.488281 70.703125 25.339844 C 69.792969 26.203125 69.414062 26.339844 68.308594 26.203125 C 66.113281 25.929688 65.566406 25.929688 65.019531 26.21875 C 63.867188 26.828125 63.582031 28.191406 64.109375 30.757812 C 64.324219 31.820312 64.703125 33.019531 65.171875 34.097656 C 65.882812 35.738281 66.613281 37.925781 66.492188 38.046875 C 66.371094 38.167969 65.324219 35.738281 64.746094 34.007812 C 63.6875 30.867188 62.882812 29.621094 61.140625 28.464844 C 58.59375 26.765625 54.367188 25.871094 50.652344 26.25 C 46.96875 26.613281 44.300781 27.417969 39.253906 29.636719 C 33.859375 32.019531 32.585938 32.792969 30.375 34.980469 C 27.476562 37.878906 23.886719 43.679688 21.535156 49.296875 C 20.535156 51.648438 19.429688 55.003906 19.234375 56.175781 C 18.882812 58.359375 19.871094 59.652344 23.308594 61.5625 C 26.339844 63.234375 26.191406 63.128906 27.296875 64.492188 C 27.386719 64.601562 27.433594 64.738281 27.386719 64.78125 C 27.28125 64.875 26.355469 64.21875 24.78125 62.929688 C 24.113281 62.382812 23.175781 61.730469 22.703125 61.503906 C 21.734375 61.015625 19.945312 60.636719 19.355469 60.789062 C 17.777344 61.183594 16.15625 64.886719 15.382812 69.898438 C 15.171875 71.28125 15.15625 71.570312 15.324219 71.734375 C 15.445312 71.84375 17.445312 73.070312 19.777344 74.46875 C 24.265625 77.15625 25.417969 77.976562 26.675781 79.34375 C 27.554688 80.3125 28.417969 81.527344 28.222656 81.527344 C 27.78125 81.527344 25.539062 79.949219 23.417969 78.128906 C 20.582031 75.699219 17.429688 74.757812 15.21875 75.683594 C 14.808594 75.851562 14.6875 76.09375 13.898438 78.203125 C 12.246094 82.652344 11.777344 84.730469 11.761719 87.675781 C 11.746094 91.03125 12.292969 92.09375 14.609375 93.21875 C 15.292969 93.550781 15.945312 93.824219 16.050781 93.824219 C 16.414062 93.824219 17.429688 94.449219 17.429688 94.660156 C 17.429688 95.011719 16.171875 94.949219 14.488281 94.507812 C 12.578125 94.007812 11.972656 94.023438 11.367188 94.523438 C 10.792969 95.023438 9.851562 96.863281 9.230469 98.730469 C 8.804688 99.988281 8.761719 100.246094 8.820312 101.675781 C 8.867188 103.101562 8.910156 103.269531 9.320312 103.875 C 9.609375 104.269531 10.335938 104.894531 11.261719 105.515625 L 12.746094 106.503906 L 11.730469 106.59375 C 11.140625 106.640625 10.335938 106.609375 9.820312 106.503906 C 8.289062 106.183594 7.835938 106.472656 6.957031 108.324219 C 6.167969 110.011719 5.910156 111.421875 5.910156 114.078125 C 5.910156 116.507812 6.015625 116.933594 6.683594 117.222656 C 7.261719 117.449219 7.972656 117.328125 10.046875 116.613281 C 13.777344 115.339844 16.503906 114.15625 17.808594 113.257812 C 19.535156 112.074219 20.492188 110.359375 20.128906 109.113281 C 19.855469 108.21875 20.15625 108.050781 21.824219 108.171875 C 23.25 108.28125 24.703125 108.097656 26.128906 107.625 C 27.476562 107.1875 36.632812 102.585938 37.511719 101.917969 C 38.890625 100.855469 39.269531 99.882812 38.664062 98.898438 C 38.027344 97.847656 36.328125 96.96875 32.023438 95.480469 C 30.507812 94.949219 29.28125 94.507812 29.3125 94.480469 C 29.34375 94.449219 30.617188 94.628906 32.144531 94.875 C 41.363281 96.363281 46.289062 96.710938 50.425781 96.179688 C 52.851562 95.859375 53.789062 95.601562 55.457031 94.78125 C 56.503906 94.28125 57.140625 93.855469 57.835938 93.15625 C 58.957031 92.078125 59.078125 91.59375 58.425781 90.820312 C 58.046875 90.363281 55.335938 88.9375 53.925781 88.4375 C 53.53125 88.300781 53.046875 88.058594 52.863281 87.921875 C 52.546875 87.660156 52.605469 87.660156 54.109375 87.921875 C 56.183594 88.300781 59.898438 88.511719 61.6875 88.34375 C 63.398438 88.191406 64.445312 87.90625 65.792969 87.207031 C 67.839844 86.128906 68.445312 84.976562 67.761719 83.425781 C 67.171875 82.105469 65.824219 80.253906 64.460938 78.933594 C 62.414062 76.941406 61.445312 76.351562 56.457031 74.011719 L 55.851562 73.726562 L 57.53125 73.617188 C 60.441406 73.4375 64.003906 72.496094 64.746094 71.707031 C 65.535156 70.871094 65.339844 70.113281 64.066406 69.046875 C 60.140625 65.769531 55.699219 61.625 54.109375 59.742188 C 53.199219 58.648438 51.515625 56.28125 51.105469 55.492188 C 50.863281 55.019531 50.136719 52.820312 50.199219 52.757812 C 50.226562 52.710938 51 53.699219 51.925781 54.929688 C 56.140625 60.605469 59.15625 64.039062 61.429688 65.753906 C 62.777344 66.769531 65.1875 68 66.050781 68.121094 C 66.640625 68.199219 66.65625 68.199219 67.519531 67.042969 C 68.898438 65.207031 70.824219 63.8125 73.28125 62.855469 C 73.949219 62.597656 74.796875 62.246094 75.175781 62.066406 L 75.855469 61.746094 L 74.570312 61.5625 C 72.582031 61.289062 70.265625 60.757812 68.824219 60.242188 C 67.140625 59.652344 63.792969 57.949219 64.15625 57.875 C 64.308594 57.84375 64.597656 57.921875 64.777344 58.058594 C 65.824219 58.726562 70.050781 59.605469 76.296875 60.425781 C 81.539062 61.109375 83.390625 61.441406 85.285156 62.019531 C 86.890625 62.519531 88.890625 63.429688 89.511719 63.960938 C 90.316406 64.644531 90.40625 64.539062 90.421875 62.960938 C 90.453125 60.714844 91.390625 58.40625 93.148438 56.234375 C 93.527344 55.78125 93.894531 55.246094 93.96875 55.050781 C 94.105469 54.671875 93.921875 53.683594 93.636719 53.320312 C 93.347656 52.984375 93.621094 52.957031 94.136719 53.273438 C 94.789062 53.667969 95.273438 53.667969 96.257812 53.289062 C 98.074219 52.5625 100.0625 50.953125 101.152344 49.328125 C 102.046875 47.976562 102.351562 46.914062 102.335938 45.273438 C 102.335938 44.515625 102.378906 43.875 102.457031 43.875 C 102.730469 43.875 103.367188 46.335938 103.472656 47.71875 C 103.59375 49.539062 103.699219 49.644531 105.382812 49.644531 C 109.09375 49.644531 112.777344 50.753906 114.960938 52.515625 C 115.382812 52.863281 115.945312 53.242188 116.203125 53.394531 C 116.671875 53.636719 116.71875 53.636719 116.992188 53.378906 C 117.15625 53.230469 117.476562 52.636719 117.703125 52.058594 C 117.929688 51.484375 118.128906 51.011719 118.15625 51.011719 C 118.171875 51.011719 118.445312 52.058594 118.75 53.320312 C 119.660156 57.160156 119.945312 57.921875 120.933594 58.921875 C 121.613281 59.636719 121.945312 59.847656 122.675781 60.046875 C 123.8125 60.378906 124.871094 60.257812 126.128906 59.636719 C 128.023438 58.695312 131.054688 55.171875 132.554688 52.179688 C 132.859375 51.605469 133.132812 51.164062 133.179688 51.210938 C 133.222656 51.253906 133.34375 51.742188 133.464844 52.300781 C 133.84375 54.09375 134.464844 55.019531 135.722656 55.6875 C 136.40625 56.050781 136.648438 56.097656 138.074219 56.097656 C 139.46875 56.097656 139.753906 56.050781 140.347656 55.734375 C 141.285156 55.234375 142.542969 53.882812 143.53125 52.300781 C 145.015625 49.949219 147 46.957031 147.210938 46.792969 C 147.363281 46.65625 147.394531 47.171875 147.347656 49.585938 C 147.257812 53.472656 147.210938 53.367188 149.351562 53.242188 C 152.109375 53.09375 156.398438 51.742188 160.324219 49.78125 C 161.582031 49.160156 162.625 48.6875 162.625 48.734375 C 162.625 48.796875 162.488281 49.234375 162.324219 49.722656 C 161.898438 50.953125 161.929688 51.542969 162.414062 51.863281 C 162.761719 52.089844 162.929688 52.105469 164.003906 51.9375 C 166.75 51.511719 168.992188 50.738281 173.296875 48.703125 C 179.828125 45.636719 184.84375 42.175781 188.242188 38.394531 C 188.9375 37.605469 189.679688 36.785156 189.878906 36.558594 C 190.242188 36.164062 190.242188 36.132812 190 35.753906 C 189.589844 35.117188 187.96875 34.023438 186.347656 33.25 C 184.316406 32.292969 176.980469 29.847656 176.480469 29.96875 C 175.996094 30.089844 175.496094 31.125 174.296875 34.464844 C 173.78125 35.921875 173.25 37.316406 173.128906 37.5625 C 172.886719 38.015625 172.21875 38.714844 172.007812 38.714844 C 171.933594 38.714844 172.328125 37.804688 172.855469 36.695312 C 173.992188 34.386719 174.34375 33.171875 174.34375 31.578125 C 174.359375 30.136719 173.933594 29.105469 172.976562 28.222656 C 172.3125 27.617188 170.8125 26.8125 169.855469 26.554688 C 169.582031 26.476562 168.871094 26.28125 168.25 26.113281 C 166.808594 25.71875 166.113281 25.855469 165.339844 26.691406 C 164.628906 27.449219 164.382812 28.453125 164.582031 29.878906 C 165.019531 32.992188 164.976562 33.050781 163.992188 30.820312 C 163.203125 29.011719 161.867188 26.492188 161.035156 25.203125 C 159.230469 22.394531 156.730469 20.34375 155.09375 20.328125 C 154.003906 20.3125 153.0625 20.070312 152.515625 19.644531 C 152.257812 19.449219 151.867188 19.28125 151.652344 19.28125 C 150.683594 19.28125 149.636719 20.996094 148.515625 24.441406 C 147.820312 26.570312 147.804688 26.613281 147.789062 25.855469 C 147.773438 24.703125 147.394531 22.96875 146.894531 21.679688 C 145.242188 17.398438 140.542969 13.921875 133.769531 11.964844 C 131.40625 11.28125 131.253906 11.339844 131.253906 12.8125 C 131.253906 14.695312 131.632812 16.152344 134.585938 25.839844 C 135.269531 28.085938 135.632812 29.558594 135.574219 29.710938 C 135.511719 29.863281 135.4375 29.910156 135.40625 29.832031 C 135.375 29.742188 134.90625 28.191406 134.359375 26.386719 C 133.164062 22.378906 131.675781 18.582031 129.890625 14.953125 C 128.238281 11.585938 127.265625 10.082031 126.371094 9.550781 C 125.691406 9.125 116.929688 6.164062 113.65625 5.253906 C 109.59375 4.113281 106.746094 3.597656 103.59375 3.414062 C 102.683594 3.371094 101.683594 3.308594 101.394531 3.265625 C 101.105469 3.234375 100.546875 3.292969 100.152344 3.414062 Z M 100.152344 3.414062" stroke-linecap="round" />
</g>
		<g transform="matrix(1 0 0 1 1.94 19.26)"  >
<path style="stroke: none; stroke-width: 1; stroke-dasharray: none; stroke-linecap: butt; stroke-dashoffset: 0; stroke-linejoin: miter; stroke-miterlimit: 4; fill: rgb(242,66,53); fill-rule: nonzero; opacity: 1;" vector-effect="non-scaling-stroke"  transform=" translate(-100.21, -94.52)" d="M 188.46875 41.917969 C 186.074219 42.464844 183.980469 43.527344 172.25 50.101562 C 165.429688 53.910156 163.976562 54.503906 159.972656 55.035156 C 147.152344 56.734375 141.105469 58.058594 137.253906 60 C 134.449219 61.410156 134.390625 61.546875 135.921875 63.035156 C 138.300781 65.34375 141.136719 66.695312 149.578125 69.550781 C 157.429688 72.222656 159.171875 72.90625 161.582031 74.332031 C 162.761719 75.015625 164.21875 76.183594 164.082031 76.335938 C 164.035156 76.367188 163.125 75.972656 162.066406 75.457031 C 157.472656 73.207031 149.878906 70.1875 143.152344 67.941406 C 134.164062 64.933594 128.160156 63.628906 125.3125 64.039062 C 123.902344 64.234375 123.160156 64.601562 122.417969 65.421875 C 121.554688 66.375 121.3125 67.015625 120.355469 70.703125 C 119.855469 72.601562 119.203125 74.878906 118.886719 75.730469 L 118.324219 77.308594 L 119.355469 79.296875 C 119.917969 80.40625 120.523438 81.496094 120.6875 81.726562 C 120.839844 81.96875 120.945312 82.179688 120.902344 82.226562 C 120.839844 82.300781 120.675781 82.152344 120.234375 81.621094 C 119.976562 81.316406 118.523438 81.011719 117.871094 81.132812 C 117.050781 81.285156 116.386719 81.816406 115.597656 82.96875 C 114.625 84.382812 113.429688 86.828125 113.109375 88.058594 C 112.746094 89.515625 112.777344 91.382812 113.203125 92.734375 C 113.398438 93.339844 113.503906 93.886719 113.445312 93.949219 C 113.382812 94.007812 113.125 93.78125 112.867188 93.445312 C 112.609375 93.113281 112.035156 92.476562 111.59375 92.019531 L 110.792969 91.183594 L 109.957031 92.324219 C 109.503906 92.945312 108.898438 93.902344 108.59375 94.464844 C 107.925781 95.722656 107.761719 95.785156 105.714844 95.433594 C 104.320312 95.207031 100.335938 95.085938 100.335938 95.269531 C 100.335938 95.421875 101.457031 97.574219 102.5 99.441406 C 104.003906 102.117188 105.488281 104.515625 109.335938 110.527344 C 113.414062 116.886719 113.488281 116.992188 113.203125 116.828125 C 112.550781 116.433594 111.398438 115.308594 110.199219 113.882812 C 106.625 109.660156 103.789062 105.363281 99.847656 98.167969 C 98.957031 96.527344 98.089844 95.160156 97.863281 94.980469 C 97.5625 94.753906 97.089844 94.660156 95.832031 94.570312 C 93.96875 94.433594 92.90625 94.21875 90.117188 93.460938 C 89.042969 93.15625 87.875 92.914062 87.542969 92.914062 C 87.195312 92.898438 86.664062 92.808594 86.359375 92.703125 L 85.800781 92.503906 L 85.695312 93.460938 C 85.511719 95.269531 85.875 98.136719 86.695312 101.324219 C 86.9375 102.3125 87.148438 103.148438 87.148438 103.207031 C 87.132812 103.269531 86.832031 102.496094 86.453125 101.492188 C 85.085938 97.820312 83.359375 94.753906 81.632812 92.929688 C 79.375 90.546875 75.902344 89.121094 72.386719 89.121094 C 70.386719 89.121094 66.503906 89.863281 65.671875 90.410156 C 65.445312 90.5625 65.1875 91.09375 64.882812 92.035156 C 63.929688 95.039062 63.671875 97.636719 63.960938 101.144531 C 64.246094 104.652344 64.171875 104.773438 63.292969 102.175781 C 62.351562 99.398438 61.671875 97.910156 61.050781 97.394531 L 60.5625 96.984375 L 55.488281 97.058594 C 48.984375 97.136719 48.273438 97.300781 47.589844 98.804688 C 47.410156 99.199219 47.226562 99.609375 47.167969 99.714844 C 47.105469 99.839844 45.664062 100.382812 43.953125 100.960938 C 34.070312 104.257812 20.445312 111.46875 13.367188 117.144531 C 11.199219 118.875 9.804688 120.804688 9.789062 122.066406 C 9.777344 123.292969 10.546875 124.085938 14.550781 126.894531 C 23.539062 133.207031 35.542969 139.207031 45.542969 142.410156 C 47.636719 143.078125 52.121094 144.230469 52.636719 144.230469 C 53.136719 144.230469 53.214844 144.09375 53.730469 141.953125 C 54.246094 139.902344 55.199219 137.003906 55.835938 135.652344 L 56.335938 134.589844 L 56.5625 135.046875 C 56.699219 135.289062 57.0625 136.289062 57.367188 137.246094 C 58.851562 141.785156 60.730469 144.488281 63.246094 145.671875 C 64.671875 146.355469 65.460938 146.433594 65.734375 145.902344 C 66.050781 145.339844 65.882812 142.699219 65.414062 140.632812 C 65.203125 139.707031 65.019531 138.902344 65.019531 138.855469 C 65.019531 138.796875 65.519531 139.175781 66.125 139.691406 C 67.824219 141.117188 70.113281 142.589844 72.324219 143.667969 C 76.507812 145.71875 79.222656 146.476562 83.828125 146.964844 L 86.921875 147.265625 L 89.164062 146.75 C 91.605469 146.175781 92.089844 145.960938 92.242188 145.355469 C 92.421875 144.609375 92.164062 142.941406 91.542969 140.890625 C 90.90625 138.8125 90.742188 137.535156 91.058594 137.214844 C 91.148438 137.125 91.253906 137.066406 91.269531 137.109375 C 91.300781 137.140625 91.511719 137.566406 91.757812 138.050781 C 93.921875 142.394531 103.457031 144.59375 110.59375 142.394531 C 113.066406 141.621094 114.871094 140.34375 115.492188 138.902344 C 115.761719 138.25 115.808594 137.898438 115.761719 136.882812 C 115.703125 135.394531 115.261719 134.363281 114.246094 133.222656 C 113.503906 132.402344 113.019531 131.554688 113.109375 131.28125 C 113.140625 131.1875 113.261719 131.234375 113.414062 131.417969 C 116.128906 134.558594 117.15625 135.59375 118.007812 136.0625 C 120.175781 137.230469 123.644531 137.277344 125.828125 136.167969 C 126.765625 135.683594 127.828125 134.542969 128.132812 133.679688 C 128.496094 132.675781 128.632812 129.945312 128.386719 128.578125 C 128.238281 127.726562 126.917969 123.1875 126.480469 121.988281 L 126.371094 121.683594 L 126.585938 121.988281 C 126.707031 122.15625 127.507812 123.492188 128.375 124.949219 C 129.238281 126.40625 130.238281 128.046875 130.617188 128.59375 C 131.722656 130.203125 133.996094 132.84375 134.269531 132.84375 C 134.695312 132.84375 136.011719 132.144531 136.46875 131.691406 C 137.089844 131.066406 137.542969 130.066406 137.847656 128.683594 C 138.074219 127.699219 138.089844 127.316406 137.953125 126.496094 C 137.859375 125.953125 137.800781 125.464844 137.832031 125.433594 C 137.859375 125.40625 138.4375 125.664062 139.105469 125.996094 C 142.089844 127.5 144.4375 127.835938 145.484375 126.878906 C 146.210938 126.195312 146.46875 125.328125 146.453125 123.429688 C 146.453125 121.683594 146.242188 120.257812 145.621094 117.996094 C 145.453125 117.386719 145.347656 116.8125 145.378906 116.71875 C 145.410156 116.628906 145.941406 117.265625 146.5625 118.132812 C 147.925781 120.03125 149.742188 121.972656 150.5625 122.398438 C 151 122.625 151.351562 122.6875 151.894531 122.640625 C 152.53125 122.582031 152.746094 122.460938 153.320312 121.898438 C 153.699219 121.535156 154.167969 120.878906 154.382812 120.441406 C 155.382812 118.40625 154.472656 115.082031 151.667969 110.496094 C 151.273438 109.859375 150.957031 109.28125 150.957031 109.234375 C 150.957031 109.175781 151.488281 109.707031 152.125 110.40625 C 155.167969 113.714844 156.609375 114.945312 158.640625 115.976562 C 160.414062 116.871094 160.519531 116.765625 161.261719 113.410156 C 161.988281 110.160156 162.109375 109.144531 161.867188 108.25 C 161.625 107.351562 159.625 102.785156 159.324219 102.433594 C 159.203125 102.296875 159.125 102.128906 159.1875 102.085938 C 159.230469 102.039062 160.109375 102.707031 161.140625 103.574219 C 164.140625 106.109375 167.414062 108.25 168.25 108.25 C 169.1875 108.25 169.6875 106.761719 169.566406 104.347656 C 169.417969 101.765625 168.160156 98.242188 165.808594 93.917969 C 165.203125 92.824219 164.613281 91.808594 164.476562 91.65625 C 164.355469 91.519531 164.308594 91.398438 164.382812 91.398438 C 164.566406 91.398438 165.582031 92.261719 168.21875 94.660156 C 171.234375 97.410156 173.539062 98.925781 175.070312 99.214844 C 176.28125 99.441406 177.039062 98.488281 177.144531 96.632812 C 177.191406 95.738281 177.132812 95.359375 176.722656 94.207031 C 176.101562 92.429688 175.3125 90.757812 174.191406 88.800781 C 172.886719 86.539062 172.855469 86.476562 173.113281 86.628906 C 173.222656 86.691406 174.101562 87.238281 175.070312 87.84375 C 177.402344 89.300781 178.160156 89.664062 179.207031 89.863281 C 180.664062 90.136719 181.269531 89.863281 181.269531 88.984375 C 181.269531 87.511719 179.890625 84.625 178.011719 82.195312 C 176.402344 80.117188 174.675781 77.613281 174.765625 77.503906 C 174.8125 77.460938 175.601562 77.914062 176.507812 78.523438 C 179.875 80.722656 182.253906 82.152344 182.828125 82.300781 C 183.574219 82.5 184.042969 82.226562 184.390625 81.40625 C 184.921875 80.148438 187.40625 70.792969 188.164062 67.226562 C 188.378906 66.210938 188.757812 63.839844 189 61.941406 C 189.242188 60.0625 189.648438 57.160156 189.894531 55.492188 C 190.878906 48.902344 190.878906 45.304688 189.894531 42.238281 C 189.710938 41.707031 189.558594 41.675781 188.46875 41.917969 Z M 67.429688 120.394531 C 68.15625 124.070312 68.1875 124.738281 67.519531 122.277344 C 66.945312 120.183594 66.066406 115.703125 66.097656 115.082031 C 66.113281 114.703125 66.960938 118.070312 67.429688 120.394531 Z M 67.429688 120.394531" stroke-linecap="round" />
</g>
</g>
</g>
</svg>